<svg width="80" height="100" viewBox="0 0 80 100" fill="none" xmlns="http://www.w3.org/2000/svg">
<path d="M53.9932 97.0321H2V49.3716V2L41.5726 2.00001C41.5726 2.00001 64.103 2.00001 64.103 25.9747C64.103 47.9274 41.5726 49.3716 41.5726 49.3716H53.9932C53.9932 49.3716 77.5424 49.3716 77.1013 73.6352C76.7076 95.299 53.9932 97.0321 53.9932 97.0321Z" fill="#F637DC"/>
<path d="M2 49.3716V2L41.5726 2.00001C41.5726 2.00001 64.103 2.00001 64.103 25.9747C64.103 47.9274 41.5726 49.3716 41.5726 49.3716M2 49.3716V97.0321H53.9932C53.9932 97.0321 76.7076 95.299 77.1014 73.6352C77.5424 49.3716 53.9932 49.3716 53.9932 49.3716H41.5726M2 49.3716H41.5726" stroke="black" stroke-width="4"/>
<path d="M52.8378 62.0811L66.7027 73.6351L52.8378 85.1892" stroke="black" stroke-width="3"/>
<path d="M32.9071 13.554L19.3311 25.6858L32.9071 37.8176" stroke="black" stroke-width="3"/>
</svg>
